<mxfile host="app.diagrams.net" modified="2023-05-13T12:11:15.896Z" agent="Mozilla/5.0 (Windows NT 10.0; Win64; x64) AppleWebKit/537.36 (KHTML, like Gecko) Chrome/113.0.0.0 Safari/537.36 Edg/113.0.1774.42" etag="u8MILBMlnwOkCJ5jtp2F" version="21.2.9" type="github">
  <diagram name="第 1 页" id="P5_SaoOpZUqWJXCqDRnv">
    <mxGraphModel dx="2274" dy="1210" grid="1" gridSize="10" guides="1" tooltips="1" connect="1" arrows="1" fold="1" page="1" pageScale="1" pageWidth="827" pageHeight="1169" math="0" shadow="0">
      <root>
        <mxCell id="0" />
        <mxCell id="1" parent="0" />
        <mxCell id="o0mnyLyp5qBXfOMMtlVB-1" value="" style="shape=umlLifeline;perimeter=lifelinePerimeter;whiteSpace=wrap;html=1;container=1;dropTarget=0;collapsible=0;recursiveResize=0;outlineConnect=0;portConstraint=eastwest;newEdgeStyle={&quot;edgeStyle&quot;:&quot;elbowEdgeStyle&quot;,&quot;elbow&quot;:&quot;vertical&quot;,&quot;curved&quot;:0,&quot;rounded&quot;:0};participant=umlActor;" vertex="1" parent="1">
          <mxGeometry x="60" y="50" width="20" height="1420" as="geometry" />
        </mxCell>
        <mxCell id="o0mnyLyp5qBXfOMMtlVB-2" value="用户" style="text;align=center;fontStyle=1;verticalAlign=middle;spacingLeft=3;spacingRight=3;strokeColor=none;rotatable=0;points=[[0,0.5],[1,0.5]];portConstraint=eastwest;html=1;" vertex="1" parent="1">
          <mxGeometry x="30" y="20" width="80" height="26" as="geometry" />
        </mxCell>
        <mxCell id="o0mnyLyp5qBXfOMMtlVB-3" value="订单服务" style="shape=umlLifeline;perimeter=lifelinePerimeter;whiteSpace=wrap;html=1;container=1;dropTarget=0;collapsible=0;recursiveResize=0;outlineConnect=0;portConstraint=eastwest;newEdgeStyle={&quot;edgeStyle&quot;:&quot;elbowEdgeStyle&quot;,&quot;elbow&quot;:&quot;vertical&quot;,&quot;curved&quot;:0,&quot;rounded&quot;:0};" vertex="1" parent="1">
          <mxGeometry x="370" y="30" width="100" height="1370" as="geometry" />
        </mxCell>
        <mxCell id="o0mnyLyp5qBXfOMMtlVB-4" value="库存服务" style="shape=umlLifeline;perimeter=lifelinePerimeter;whiteSpace=wrap;html=1;container=1;dropTarget=0;collapsible=0;recursiveResize=0;outlineConnect=0;portConstraint=eastwest;newEdgeStyle={&quot;edgeStyle&quot;:&quot;elbowEdgeStyle&quot;,&quot;elbow&quot;:&quot;vertical&quot;,&quot;curved&quot;:0,&quot;rounded&quot;:0};" vertex="1" parent="1">
          <mxGeometry x="760" y="30" width="100" height="1630" as="geometry" />
        </mxCell>
        <mxCell id="o0mnyLyp5qBXfOMMtlVB-5" value="" style="endArrow=open;endFill=1;endSize=12;html=1;rounded=0;" edge="1" parent="1">
          <mxGeometry width="160" relative="1" as="geometry">
            <mxPoint x="120" y="120" as="sourcePoint" />
            <mxPoint x="370" y="120" as="targetPoint" />
          </mxGeometry>
        </mxCell>
        <mxCell id="o0mnyLyp5qBXfOMMtlVB-6" value="1、发送http://order.gulimall.com/web/submitOrder&lt;br&gt;携带orderToken、收获地址id、支付方式、应付价格" style="text;align=center;fontStyle=1;verticalAlign=middle;spacingLeft=3;spacingRight=3;strokeColor=none;rotatable=0;points=[[0,0.5],[1,0.5]];portConstraint=eastwest;html=1;" vertex="1" parent="1">
          <mxGeometry x="200" y="90" width="80" height="26" as="geometry" />
        </mxCell>
        <mxCell id="o0mnyLyp5qBXfOMMtlVB-9" value="" style="endArrow=open;endFill=1;endSize=12;html=1;rounded=0;" edge="1" parent="1">
          <mxGeometry width="160" relative="1" as="geometry">
            <mxPoint x="440" y="140" as="sourcePoint" />
            <mxPoint x="440" y="200" as="targetPoint" />
            <Array as="points">
              <mxPoint x="480" y="140" />
              <mxPoint x="480" y="200" />
            </Array>
          </mxGeometry>
        </mxCell>
        <mxCell id="o0mnyLyp5qBXfOMMtlVB-10" value="2、将前端传过来的数据封装到OrderSubmitVo中，&lt;br&gt;并放到ThreadLocal中" style="text;align=center;fontStyle=1;verticalAlign=middle;spacingLeft=3;spacingRight=3;strokeColor=none;rotatable=0;points=[[0,0.5],[1,0.5]];portConstraint=eastwest;html=1;" vertex="1" parent="1">
          <mxGeometry x="510" y="160" width="80" height="26" as="geometry" />
        </mxCell>
        <mxCell id="o0mnyLyp5qBXfOMMtlVB-12" value="" style="endArrow=open;endFill=1;endSize=12;html=1;rounded=0;" edge="1" parent="1">
          <mxGeometry width="160" relative="1" as="geometry">
            <mxPoint x="440" y="240" as="sourcePoint" />
            <mxPoint x="440" y="300" as="targetPoint" />
            <Array as="points">
              <mxPoint x="480" y="240" />
              <mxPoint x="480" y="300" />
            </Array>
          </mxGeometry>
        </mxCell>
        <mxCell id="o0mnyLyp5qBXfOMMtlVB-13" value="3、原子操作验证令牌" style="text;align=center;fontStyle=1;verticalAlign=middle;spacingLeft=3;spacingRight=3;strokeColor=none;rotatable=0;points=[[0,0.5],[1,0.5]];portConstraint=eastwest;html=1;" vertex="1" parent="1">
          <mxGeometry x="440" y="260" width="80" height="26" as="geometry" />
        </mxCell>
        <mxCell id="o0mnyLyp5qBXfOMMtlVB-14" value="" style="endArrow=open;endFill=1;endSize=12;html=1;rounded=0;" edge="1" parent="1">
          <mxGeometry width="160" relative="1" as="geometry">
            <mxPoint x="440" y="350" as="sourcePoint" />
            <mxPoint x="440" y="410" as="targetPoint" />
            <Array as="points">
              <mxPoint x="480" y="350" />
              <mxPoint x="480" y="410" />
            </Array>
          </mxGeometry>
        </mxCell>
        <mxCell id="o0mnyLyp5qBXfOMMtlVB-16" value="4、构建生成订单流程中需要的所有的数据&lt;br&gt;（订单，订单项、重新计算订单价格）" style="text;align=center;fontStyle=1;verticalAlign=middle;spacingLeft=3;spacingRight=3;strokeColor=none;rotatable=0;points=[[0,0.5],[1,0.5]];portConstraint=eastwest;html=1;" vertex="1" parent="1">
          <mxGeometry x="490" y="370" width="80" height="26" as="geometry" />
        </mxCell>
        <mxCell id="o0mnyLyp5qBXfOMMtlVB-17" style="edgeStyle=orthogonalEdgeStyle;rounded=0;orthogonalLoop=1;jettySize=auto;html=1;exitX=1;exitY=0.5;exitDx=0;exitDy=0;" edge="1" parent="1" source="o0mnyLyp5qBXfOMMtlVB-16" target="o0mnyLyp5qBXfOMMtlVB-16">
          <mxGeometry relative="1" as="geometry" />
        </mxCell>
        <mxCell id="o0mnyLyp5qBXfOMMtlVB-18" value="" style="endArrow=open;endFill=1;endSize=12;html=1;rounded=0;" edge="1" parent="1">
          <mxGeometry width="160" relative="1" as="geometry">
            <mxPoint x="439" y="450" as="sourcePoint" />
            <mxPoint x="439" y="510" as="targetPoint" />
            <Array as="points">
              <mxPoint x="479" y="450" />
              <mxPoint x="479" y="510" />
            </Array>
          </mxGeometry>
        </mxCell>
        <mxCell id="o0mnyLyp5qBXfOMMtlVB-19" value="5、验价（判断订单生成的过程中，&lt;br&gt;商品的价格有没有变化）" style="text;align=center;fontStyle=1;verticalAlign=middle;spacingLeft=3;spacingRight=3;strokeColor=none;rotatable=0;points=[[0,0.5],[1,0.5]];portConstraint=eastwest;html=1;" vertex="1" parent="1">
          <mxGeometry x="490" y="470" width="80" height="26" as="geometry" />
        </mxCell>
        <mxCell id="o0mnyLyp5qBXfOMMtlVB-20" style="edgeStyle=orthogonalEdgeStyle;rounded=0;orthogonalLoop=1;jettySize=auto;html=1;exitX=1;exitY=0.5;exitDx=0;exitDy=0;" edge="1" parent="1" source="o0mnyLyp5qBXfOMMtlVB-19" target="o0mnyLyp5qBXfOMMtlVB-19">
          <mxGeometry relative="1" as="geometry" />
        </mxCell>
        <mxCell id="o0mnyLyp5qBXfOMMtlVB-23" value="" style="endArrow=open;endFill=1;endSize=12;html=1;rounded=0;" edge="1" parent="1">
          <mxGeometry width="160" relative="1" as="geometry">
            <mxPoint x="438" y="540" as="sourcePoint" />
            <mxPoint x="438" y="600" as="targetPoint" />
            <Array as="points">
              <mxPoint x="478" y="540" />
              <mxPoint x="478" y="600" />
            </Array>
          </mxGeometry>
        </mxCell>
        <mxCell id="o0mnyLyp5qBXfOMMtlVB-24" value="6、将订单和订单项保存到数据库" style="text;align=center;fontStyle=1;verticalAlign=middle;spacingLeft=3;spacingRight=3;strokeColor=none;rotatable=0;points=[[0,0.5],[1,0.5]];portConstraint=eastwest;html=1;" vertex="1" parent="1">
          <mxGeometry x="489" y="560" width="80" height="26" as="geometry" />
        </mxCell>
        <mxCell id="o0mnyLyp5qBXfOMMtlVB-25" style="edgeStyle=orthogonalEdgeStyle;rounded=0;orthogonalLoop=1;jettySize=auto;html=1;exitX=1;exitY=0.5;exitDx=0;exitDy=0;" edge="1" parent="1" source="o0mnyLyp5qBXfOMMtlVB-24" target="o0mnyLyp5qBXfOMMtlVB-24">
          <mxGeometry relative="1" as="geometry" />
        </mxCell>
        <mxCell id="o0mnyLyp5qBXfOMMtlVB-26" value="" style="endArrow=open;endFill=1;endSize=12;html=1;rounded=0;" edge="1" parent="1">
          <mxGeometry width="160" relative="1" as="geometry">
            <mxPoint x="450" y="660" as="sourcePoint" />
            <mxPoint x="790" y="660" as="targetPoint" />
          </mxGeometry>
        </mxCell>
        <mxCell id="o0mnyLyp5qBXfOMMtlVB-27" value="7、发起远程调用ware服务锁定库存" style="text;align=center;fontStyle=1;verticalAlign=middle;spacingLeft=3;spacingRight=3;strokeColor=none;rotatable=0;points=[[0,0.5],[1,0.5]];portConstraint=eastwest;html=1;" vertex="1" parent="1">
          <mxGeometry x="540" y="630" width="80" height="26" as="geometry" />
        </mxCell>
        <mxCell id="o0mnyLyp5qBXfOMMtlVB-29" value="&lt;div&gt;携带WareSkuStockVo {&lt;/div&gt;&lt;div&gt;&amp;nbsp; &amp;nbsp; String orderSn ;//订单号&lt;/div&gt;&lt;div&gt;&amp;nbsp; &amp;nbsp; List&amp;lt;OmsOrderItemEntity&amp;gt; stockItems;//锁定的所有订单项}&lt;/div&gt;" style="text;align=center;fontStyle=1;verticalAlign=middle;spacingLeft=3;spacingRight=3;strokeColor=none;rotatable=0;points=[[0,0.5],[1,0.5]];portConstraint=eastwest;html=1;" vertex="1" parent="1">
          <mxGeometry x="550" y="670" width="80" height="26" as="geometry" />
        </mxCell>
        <mxCell id="o0mnyLyp5qBXfOMMtlVB-33" value="" style="endArrow=open;endFill=1;endSize=12;html=1;rounded=0;" edge="1" parent="1">
          <mxGeometry width="160" relative="1" as="geometry">
            <mxPoint x="810" y="720" as="sourcePoint" />
            <mxPoint x="810" y="780" as="targetPoint" />
            <Array as="points">
              <mxPoint x="850" y="720" />
              <mxPoint x="850" y="780" />
            </Array>
          </mxGeometry>
        </mxCell>
        <mxCell id="o0mnyLyp5qBXfOMMtlVB-34" value="8、生成工作单（ware_order_task）&lt;br&gt;并绑定当前订单" style="text;align=center;fontStyle=1;verticalAlign=middle;spacingLeft=3;spacingRight=3;strokeColor=none;rotatable=0;points=[[0,0.5],[1,0.5]];portConstraint=eastwest;html=1;" vertex="1" parent="1">
          <mxGeometry x="861" y="740" width="80" height="26" as="geometry" />
        </mxCell>
        <mxCell id="o0mnyLyp5qBXfOMMtlVB-35" style="edgeStyle=orthogonalEdgeStyle;rounded=0;orthogonalLoop=1;jettySize=auto;html=1;exitX=1;exitY=0.5;exitDx=0;exitDy=0;" edge="1" parent="1" source="o0mnyLyp5qBXfOMMtlVB-34" target="o0mnyLyp5qBXfOMMtlVB-34">
          <mxGeometry relative="1" as="geometry" />
        </mxCell>
        <mxCell id="o0mnyLyp5qBXfOMMtlVB-36" value="" style="endArrow=open;endFill=1;endSize=12;html=1;rounded=0;" edge="1" parent="1">
          <mxGeometry width="160" relative="1" as="geometry">
            <mxPoint x="820" y="820" as="sourcePoint" />
            <mxPoint x="820" y="880" as="targetPoint" />
            <Array as="points">
              <mxPoint x="860" y="820" />
              <mxPoint x="860" y="880" />
            </Array>
          </mxGeometry>
        </mxCell>
        <mxCell id="o0mnyLyp5qBXfOMMtlVB-37" value="9、遍历每一个订单项，&lt;br&gt;找到拥有该商品库存的所有仓库" style="text;align=center;fontStyle=1;verticalAlign=middle;spacingLeft=3;spacingRight=3;strokeColor=none;rotatable=0;points=[[0,0.5],[1,0.5]];portConstraint=eastwest;html=1;" vertex="1" parent="1">
          <mxGeometry x="850" y="840" width="80" height="26" as="geometry" />
        </mxCell>
        <mxCell id="o0mnyLyp5qBXfOMMtlVB-38" style="edgeStyle=orthogonalEdgeStyle;rounded=0;orthogonalLoop=1;jettySize=auto;html=1;exitX=1;exitY=0.5;exitDx=0;exitDy=0;" edge="1" parent="1" source="o0mnyLyp5qBXfOMMtlVB-37" target="o0mnyLyp5qBXfOMMtlVB-37">
          <mxGeometry relative="1" as="geometry" />
        </mxCell>
        <mxCell id="o0mnyLyp5qBXfOMMtlVB-39" value="" style="endArrow=open;endFill=1;endSize=12;html=1;rounded=0;" edge="1" parent="1">
          <mxGeometry width="160" relative="1" as="geometry">
            <mxPoint x="827" y="920" as="sourcePoint" />
            <mxPoint x="827" y="980" as="targetPoint" />
            <Array as="points">
              <mxPoint x="867" y="920" />
              <mxPoint x="867" y="980" />
            </Array>
          </mxGeometry>
        </mxCell>
        <mxCell id="o0mnyLyp5qBXfOMMtlVB-40" value="10、遍历每个商品拥有的所有仓库，&lt;br&gt;挨个挨个的去锁定库存" style="text;align=center;fontStyle=1;verticalAlign=middle;spacingLeft=3;spacingRight=3;strokeColor=none;rotatable=0;points=[[0,0.5],[1,0.5]];portConstraint=eastwest;html=1;" vertex="1" parent="1">
          <mxGeometry x="880" y="940" width="80" height="26" as="geometry" />
        </mxCell>
        <mxCell id="o0mnyLyp5qBXfOMMtlVB-41" style="edgeStyle=orthogonalEdgeStyle;rounded=0;orthogonalLoop=1;jettySize=auto;html=1;exitX=1;exitY=0.5;exitDx=0;exitDy=0;" edge="1" parent="1" source="o0mnyLyp5qBXfOMMtlVB-40" target="o0mnyLyp5qBXfOMMtlVB-40">
          <mxGeometry relative="1" as="geometry" />
        </mxCell>
        <mxCell id="o0mnyLyp5qBXfOMMtlVB-42" value="" style="endArrow=open;endFill=1;endSize=12;html=1;rounded=0;" edge="1" parent="1">
          <mxGeometry width="160" relative="1" as="geometry">
            <mxPoint x="833.94" y="1010" as="sourcePoint" />
            <mxPoint x="833.94" y="1070" as="targetPoint" />
            <Array as="points">
              <mxPoint x="873.94" y="1010" />
              <mxPoint x="873.94" y="1070" />
            </Array>
          </mxGeometry>
        </mxCell>
        <mxCell id="o0mnyLyp5qBXfOMMtlVB-43" value="11、如果锁定成功：保存工作单中的详情，记录在哪个仓库，&lt;br&gt;哪个商品锁了多少件，锁定状态等信息 (ware_order_task_detail) &lt;br&gt;------&amp;gt; 此时工作单详情是已锁定状态" style="text;align=center;fontStyle=1;verticalAlign=middle;spacingLeft=3;spacingRight=3;strokeColor=none;rotatable=0;points=[[0,0.5],[1,0.5]];portConstraint=eastwest;html=1;" vertex="1" parent="1">
          <mxGeometry x="950" y="1030" width="80" height="26" as="geometry" />
        </mxCell>
        <mxCell id="o0mnyLyp5qBXfOMMtlVB-44" style="edgeStyle=orthogonalEdgeStyle;rounded=0;orthogonalLoop=1;jettySize=auto;html=1;exitX=1;exitY=0.5;exitDx=0;exitDy=0;" edge="1" parent="1" source="o0mnyLyp5qBXfOMMtlVB-43" target="o0mnyLyp5qBXfOMMtlVB-43">
          <mxGeometry relative="1" as="geometry" />
        </mxCell>
        <mxCell id="o0mnyLyp5qBXfOMMtlVB-46" value="RabbitMQ服务器" style="shape=umlLifeline;perimeter=lifelinePerimeter;whiteSpace=wrap;html=1;container=1;dropTarget=0;collapsible=0;recursiveResize=0;outlineConnect=0;portConstraint=eastwest;newEdgeStyle={&quot;edgeStyle&quot;:&quot;elbowEdgeStyle&quot;,&quot;elbow&quot;:&quot;vertical&quot;,&quot;curved&quot;:0,&quot;rounded&quot;:0};" vertex="1" parent="1">
          <mxGeometry x="1191" y="30" width="100" height="1510" as="geometry" />
        </mxCell>
        <mxCell id="o0mnyLyp5qBXfOMMtlVB-47" value="" style="endArrow=open;endFill=1;endSize=12;html=1;rounded=0;" edge="1" parent="1">
          <mxGeometry width="160" relative="1" as="geometry">
            <mxPoint x="830" y="1140" as="sourcePoint" />
            <mxPoint x="1210" y="1140" as="targetPoint" />
          </mxGeometry>
        </mxCell>
        <mxCell id="o0mnyLyp5qBXfOMMtlVB-48" value="12、向MQ发送消息，该库存被锁定,每锁一个库存就发一个消息" style="text;align=center;fontStyle=1;verticalAlign=middle;spacingLeft=3;spacingRight=3;strokeColor=none;rotatable=0;points=[[0,0.5],[1,0.5]];portConstraint=eastwest;html=1;" vertex="1" parent="1">
          <mxGeometry x="970" y="1110" width="80" height="26" as="geometry" />
        </mxCell>
        <mxCell id="o0mnyLyp5qBXfOMMtlVB-49" value="&lt;div&gt;exchange: &quot;stock-event-exchange&quot;&lt;/div&gt;&lt;div&gt;routing-key: &quot;stock.locked&quot;&lt;/div&gt;" style="text;align=center;fontStyle=1;verticalAlign=middle;spacingLeft=3;spacingRight=3;strokeColor=none;rotatable=0;points=[[0,0.5],[1,0.5]];portConstraint=eastwest;html=1;" vertex="1" parent="1">
          <mxGeometry x="970" y="1150" width="80" height="26" as="geometry" />
        </mxCell>
        <mxCell id="o0mnyLyp5qBXfOMMtlVB-50" value="" style="endArrow=open;endFill=1;endSize=12;html=1;rounded=0;" edge="1" parent="1">
          <mxGeometry width="160" relative="1" as="geometry">
            <mxPoint x="770" y="1200" as="sourcePoint" />
            <mxPoint x="440" y="1200" as="targetPoint" />
          </mxGeometry>
        </mxCell>
        <mxCell id="o0mnyLyp5qBXfOMMtlVB-51" value="13、返回库存锁定情况" style="text;align=center;fontStyle=1;verticalAlign=middle;spacingLeft=3;spacingRight=3;strokeColor=none;rotatable=0;points=[[0,0.5],[1,0.5]];portConstraint=eastwest;html=1;" vertex="1" parent="1">
          <mxGeometry x="550" y="1169" width="80" height="26" as="geometry" />
        </mxCell>
        <mxCell id="o0mnyLyp5qBXfOMMtlVB-52" value="" style="endArrow=open;endFill=1;endSize=12;html=1;rounded=0;" edge="1" parent="1">
          <mxGeometry width="160" relative="1" as="geometry">
            <mxPoint x="460" y="1260" as="sourcePoint" />
            <mxPoint x="780" y="1260" as="targetPoint" />
          </mxGeometry>
        </mxCell>
        <mxCell id="o0mnyLyp5qBXfOMMtlVB-53" value="14、订单生成，创建订单成功的消息发送给MQ" style="text;align=center;fontStyle=1;verticalAlign=middle;spacingLeft=3;spacingRight=3;strokeColor=none;rotatable=0;points=[[0,0.5],[1,0.5]];portConstraint=eastwest;html=1;" vertex="1" parent="1">
          <mxGeometry x="569" y="1240" width="80" height="26" as="geometry" />
        </mxCell>
      </root>
    </mxGraphModel>
  </diagram>
</mxfile>
